<svg width="22" height="22" viewBox="0 0 22 22" fill="none" xmlns="http://www.w3.org/2000/svg">
    <path d="M9.35397 5.76773C9.82657 4.11173 12.1734 4.11173 12.646 5.76773V5.76773C12.8995 6.65605 13.8122 7.18297 14.7083 6.95836V6.95836C16.3787 6.53964 17.5521 8.57209 16.3543 9.80937V9.80937C15.7117 10.4731 15.7117 11.5269 16.3543 12.1906V12.1906C17.5521 13.4279 16.3787 15.4604 14.7083 15.0416V15.0416C13.8122 14.817 12.8995 15.3439 12.646 16.2323V16.2323C12.1734 17.8883 9.82657 17.8883 9.35397 16.2323V16.2323C9.10045 15.3439 8.18781 14.817 7.29174 15.0416V15.0416C5.6213 15.4604 4.44787 13.4279 5.6457 12.1906V12.1906C6.28826 11.5269 6.28826 10.4731 5.6457 9.80937V9.80937C4.44787 8.57209 5.6213 6.53964 7.29174 6.95836V6.95836C8.18781 7.18297 9.10045 6.65605 9.35397 5.76773V5.76773Z" fill="#090909"/>
    <circle cx="11" cy="11" r="2" fill="white"/>
</svg>
