<svg width="21" height="21" viewBox="0 0 21 21" fill="none" xmlns="http://www.w3.org/2000/svg">
    <mask id="path-1-outside-1" maskUnits="userSpaceOnUse" x="0" y="1" width="20" height="20" fill="black">
    <rect fill="white" y="1" width="20" height="20"/>
    <path d="M18.0711 17.0711C16.1957 18.9464 13.6522 20 11 20C8.34784 20 5.8043 18.9464 3.92893 17.0711C2.05357 15.1957 1 12.6522 1 10C1 7.34784 2.05357 4.8043 3.92893 2.92893L11 10L18.0711 17.0711Z"/>
    </mask>
    <path d="M18.0711 17.0711C16.1957 18.9464 13.6522 20 11 20C8.34784 20 5.8043 18.9464 3.92893 17.0711C2.05357 15.1957 1 12.6522 1 10C1 7.34784 2.05357 4.8043 3.92893 2.92893L11 10L18.0711 17.0711Z" fill="#EF3F3A"/>
    <path d="M18.0711 17.0711C16.1957 18.9464 13.6522 20 11 20C8.34784 20 5.8043 18.9464 3.92893 17.0711C2.05357 15.1957 1 12.6522 1 10C1 7.34784 2.05357 4.8043 3.92893 2.92893L11 10L18.0711 17.0711Z" stroke="black" stroke-width="2" mask="url(#path-1-outside-1)"/>
    <path d="M17.364 16.364C15.6761 18.0518 13.3869 19 11 19C8.61305 19 6.32387 18.0518 4.63604 16.364C2.94821 14.6761 2 12.3869 2 10C2 7.61305 2.94821 5.32387 4.63604 3.63604L5.42103 4.42103C3.9414 5.90067 3.11015 7.90748 3.11015 10C3.11015 12.0925 3.9414 14.0993 5.42103 15.579C6.90067 17.0586 8.90748 17.8899 11 17.8899C13.0925 17.8899 15.0993 17.0586 16.579 15.579L17.364 16.364Z" fill="#B8DD5A"/>
    <path d="M18.0711 17.0711C16.1957 18.9464 13.6522 20 11 20C8.34784 20 5.8043 18.9464 3.92893 17.0711C2.05357 15.1957 1 12.6522 1 10C1 7.34784 2.05357 4.8043 3.92893 2.92893L4.757 3.757C3.10125 5.41274 2.17106 7.65842 2.17106 10C2.17106 12.3416 3.10125 14.5873 4.757 16.243C6.41274 17.8988 8.65842 18.8289 11 18.8289C13.3416 18.8289 15.5873 17.8988 17.243 16.243L18.0711 17.0711Z" fill="#26A43B"/>
    <circle cx="6.5" cy="7.5" r="0.5" fill="black"/>
    <circle cx="10.5" cy="13.5" r="0.5" fill="black"/>
    <circle cx="6.5" cy="11.5" r="0.5" fill="black"/>
    <circle cx="13.5" cy="14.5" r="0.5" fill="black"/>
    <circle cx="7.5" cy="14.5" r="0.5" fill="black"/>
    <circle cx="9.5" cy="10.5" r="0.5" fill="black"/>
</svg>